<svg xmlns="http://www.w3.org/2000/svg" xmlns:xlink="http://www.w3.org/1999/xlink" width="184" zoomAndPan="magnify" viewBox="0 0 138 30.000001" height="40" preserveAspectRatio="xMidYMid meet" version="1.0"><defs><g/><clipPath id="id1"><path d="M 9 20 L 24 20 L 24 21.632812 L 9 21.632812 Z M 9 20 " clip-rule="nonzero"/></clipPath><clipPath id="id2"><path d="M 15 6.390625 L 18 6.390625 L 18 9 L 15 9 Z M 15 6.390625 " clip-rule="nonzero"/></clipPath><clipPath id="id3"><path d="M 8.863281 8 L 16 8 L 16 18 L 8.863281 18 Z M 8.863281 8 " clip-rule="nonzero"/></clipPath><clipPath id="id4"><path d="M 17 8 L 24.105469 8 L 24.105469 18 L 17 18 Z M 17 8 " clip-rule="nonzero"/></clipPath></defs><g fill="#ffffff" fill-opacity="1"><g transform="translate(31.122124, 18.732648)"><g><path d="M 0.9375 0 L 0.9375 -9.671875 L 2.96875 -9.671875 L 2.96875 -1.5625 L 8.140625 -1.5625 L 8.140625 0 Z M 0.9375 0 "/></g></g></g><g fill="#ffffff" fill-opacity="1"><g transform="translate(39.698205, 18.732648)"><g><path d="M 2.703125 0.140625 C 1.984375 0.140625 1.421875 -0.0507812 1.015625 -0.4375 C 0.609375 -0.832031 0.40625 -1.382812 0.40625 -2.09375 C 0.40625 -2.863281 0.65625 -3.445312 1.15625 -3.84375 C 1.65625 -4.25 2.382812 -4.457031 3.34375 -4.46875 L 4.9375 -4.5 L 4.9375 -4.875 C 4.9375 -5.363281 4.851562 -5.722656 4.6875 -5.953125 C 4.519531 -6.191406 4.242188 -6.3125 3.859375 -6.3125 C 3.492188 -6.3125 3.226562 -6.226562 3.0625 -6.0625 C 2.894531 -5.90625 2.789062 -5.640625 2.75 -5.265625 L 0.75 -5.359375 C 0.875 -6.078125 1.203125 -6.625 1.734375 -7 C 2.273438 -7.375 3.007812 -7.5625 3.9375 -7.5625 C 4.875 -7.5625 5.59375 -7.328125 6.09375 -6.859375 C 6.601562 -6.398438 6.859375 -5.742188 6.859375 -4.890625 L 6.859375 -2.1875 C 6.859375 -1.78125 6.90625 -1.492188 7 -1.328125 C 7.09375 -1.171875 7.25 -1.09375 7.46875 -1.09375 C 7.625 -1.09375 7.769531 -1.109375 7.90625 -1.140625 L 7.90625 -0.09375 C 7.789062 -0.0703125 7.6875 -0.046875 7.59375 -0.015625 C 7.5 0.00390625 7.40625 0.0195312 7.3125 0.03125 C 7.226562 0.0507812 7.132812 0.0625 7.03125 0.0625 C 6.925781 0.0703125 6.804688 0.078125 6.671875 0.078125 C 6.179688 0.078125 5.820312 -0.0351562 5.59375 -0.265625 C 5.363281 -0.503906 5.222656 -0.859375 5.171875 -1.328125 L 5.140625 -1.328125 C 4.597656 -0.347656 3.785156 0.140625 2.703125 0.140625 Z M 4.9375 -3.4375 L 3.953125 -3.421875 C 3.503906 -3.398438 3.1875 -3.347656 3 -3.265625 C 2.8125 -3.191406 2.664062 -3.070312 2.5625 -2.90625 C 2.46875 -2.738281 2.421875 -2.519531 2.421875 -2.25 C 2.421875 -1.894531 2.5 -1.628906 2.65625 -1.453125 C 2.820312 -1.285156 3.039062 -1.203125 3.3125 -1.203125 C 3.613281 -1.203125 3.890625 -1.285156 4.140625 -1.453125 C 4.390625 -1.617188 4.582031 -1.847656 4.71875 -2.140625 C 4.863281 -2.429688 4.9375 -2.738281 4.9375 -3.0625 Z M 4.9375 -3.4375 "/></g></g></g><g fill="#ffffff" fill-opacity="1"><g transform="translate(47.506482, 18.732648)"><g><path d="M 9 0 L 6.96875 0 L 5.78125 -4.53125 C 5.726562 -4.726562 5.625 -5.234375 5.46875 -6.046875 L 5.109375 -4.515625 L 3.921875 0 L 1.875 0 L -0.046875 -7.421875 L 1.765625 -7.421875 L 2.984375 -1.75 L 3.09375 -2.25 L 3.265625 -3.0625 L 4.421875 -7.421875 L 6.484375 -7.421875 L 7.625 -3.0625 C 7.6875 -2.820312 7.78125 -2.382812 7.90625 -1.75 L 8.09375 -2.65625 L 9.171875 -7.421875 L 10.953125 -7.421875 Z M 9 0 "/></g></g></g><g fill="#ffffff" fill-opacity="1"><g transform="translate(58.427103, 18.732648)"><g><path d="M 5.53125 -1.453125 C 6.050781 -1.453125 6.554688 -1.523438 7.046875 -1.671875 C 7.546875 -1.828125 7.929688 -2.023438 8.203125 -2.265625 L 8.203125 -3.59375 L 5.84375 -3.59375 L 5.84375 -5.09375 L 10.0625 -5.09375 L 10.0625 -1.546875 C 9.539062 -1.015625 8.867188 -0.597656 8.046875 -0.296875 C 7.234375 -0.00390625 6.375 0.140625 5.46875 0.140625 C 3.894531 0.140625 2.6875 -0.289062 1.84375 -1.15625 C 1 -2.03125 0.578125 -3.269531 0.578125 -4.875 C 0.578125 -6.46875 1 -7.6875 1.84375 -8.53125 C 2.695312 -9.382812 3.921875 -9.8125 5.515625 -9.8125 C 7.785156 -9.8125 9.226562 -8.972656 9.84375 -7.296875 L 7.984375 -6.734375 C 7.785156 -7.222656 7.46875 -7.59375 7.03125 -7.84375 C 6.601562 -8.09375 6.097656 -8.21875 5.515625 -8.21875 C 4.566406 -8.21875 3.84375 -7.925781 3.34375 -7.34375 C 2.851562 -6.769531 2.609375 -5.945312 2.609375 -4.875 C 2.609375 -3.78125 2.863281 -2.9375 3.375 -2.34375 C 3.882812 -1.75 4.601562 -1.453125 5.53125 -1.453125 Z M 5.53125 -1.453125 "/></g></g></g><g fill="#ffffff" fill-opacity="1"><g transform="translate(69.347723, 18.732648)"><g><path d="M 0.984375 0 L 0.984375 -5.671875 C 0.984375 -6.085938 0.976562 -6.429688 0.96875 -6.703125 C 0.957031 -6.972656 0.941406 -7.210938 0.921875 -7.421875 L 2.765625 -7.421875 C 2.773438 -7.335938 2.789062 -7.085938 2.8125 -6.671875 C 2.84375 -6.253906 2.859375 -5.976562 2.859375 -5.84375 L 2.875 -5.84375 C 3.0625 -6.363281 3.226562 -6.726562 3.375 -6.9375 C 3.519531 -7.144531 3.691406 -7.300781 3.890625 -7.40625 C 4.097656 -7.507812 4.351562 -7.5625 4.65625 -7.5625 C 4.90625 -7.5625 5.101562 -7.53125 5.25 -7.46875 L 5.25 -5.84375 C 4.9375 -5.914062 4.664062 -5.953125 4.4375 -5.953125 C 3.945312 -5.953125 3.566406 -5.753906 3.296875 -5.359375 C 3.035156 -4.972656 2.90625 -4.398438 2.90625 -3.640625 L 2.90625 0 Z M 0.984375 0 "/></g></g></g><g fill="#ffffff" fill-opacity="1"><g transform="translate(74.811461, 18.732648)"><g><path d="M 8.03125 -3.71875 C 8.03125 -2.507812 7.695312 -1.5625 7.03125 -0.875 C 6.363281 -0.195312 5.441406 0.140625 4.265625 0.140625 C 3.109375 0.140625 2.195312 -0.203125 1.53125 -0.890625 C 0.875 -1.578125 0.546875 -2.519531 0.546875 -3.71875 C 0.546875 -4.90625 0.875 -5.84375 1.53125 -6.53125 C 2.195312 -7.21875 3.117188 -7.5625 4.296875 -7.5625 C 5.515625 -7.5625 6.441406 -7.226562 7.078125 -6.5625 C 7.710938 -5.90625 8.03125 -4.957031 8.03125 -3.71875 Z M 6.015625 -3.71875 C 6.015625 -4.601562 5.867188 -5.242188 5.578125 -5.640625 C 5.296875 -6.035156 4.878906 -6.234375 4.328125 -6.234375 C 3.160156 -6.234375 2.578125 -5.394531 2.578125 -3.71875 C 2.578125 -2.882812 2.71875 -2.253906 3 -1.828125 C 3.28125 -1.398438 3.691406 -1.1875 4.234375 -1.1875 C 5.421875 -1.1875 6.015625 -2.03125 6.015625 -3.71875 Z M 6.015625 -3.71875 "/></g></g></g><g fill="#ffffff" fill-opacity="1"><g transform="translate(83.387542, 18.732648)"><g><path d="M 2.796875 -7.421875 L 2.796875 -3.265625 C 2.796875 -1.953125 3.234375 -1.296875 4.109375 -1.296875 C 4.578125 -1.296875 4.953125 -1.492188 5.234375 -1.890625 C 5.523438 -2.296875 5.671875 -2.8125 5.671875 -3.4375 L 5.671875 -7.421875 L 7.59375 -7.421875 L 7.59375 -1.65625 C 7.59375 -1.03125 7.613281 -0.476562 7.65625 0 L 5.8125 0 C 5.757812 -0.65625 5.734375 -1.144531 5.734375 -1.46875 L 5.703125 -1.46875 C 5.441406 -0.90625 5.113281 -0.492188 4.71875 -0.234375 C 4.320312 0.015625 3.851562 0.140625 3.3125 0.140625 C 2.53125 0.140625 1.925781 -0.0976562 1.5 -0.578125 C 1.082031 -1.066406 0.875 -1.773438 0.875 -2.703125 L 0.875 -7.421875 Z M 2.796875 -7.421875 "/></g></g></g><g fill="#ffffff" fill-opacity="1"><g transform="translate(91.963622, 18.732648)"><g><path d="M 8 -3.75 C 8 -2.507812 7.75 -1.550781 7.25 -0.875 C 6.757812 -0.195312 6.0625 0.140625 5.15625 0.140625 C 4.632812 0.140625 4.179688 0.0234375 3.796875 -0.203125 C 3.410156 -0.429688 3.113281 -0.757812 2.90625 -1.1875 L 2.859375 -1.1875 C 2.890625 -1.039062 2.90625 -0.625 2.90625 0.0625 L 2.90625 2.921875 L 0.984375 2.921875 L 0.984375 -5.71875 C 0.984375 -6.414062 0.960938 -6.984375 0.921875 -7.421875 L 2.796875 -7.421875 C 2.816406 -7.335938 2.832031 -7.175781 2.84375 -6.9375 C 2.863281 -6.695312 2.875 -6.457031 2.875 -6.21875 L 2.90625 -6.21875 C 3.34375 -7.125 4.132812 -7.578125 5.28125 -7.578125 C 6.144531 -7.578125 6.8125 -7.242188 7.28125 -6.578125 C 7.757812 -5.910156 8 -4.96875 8 -3.75 Z M 6 -3.75 C 6 -5.40625 5.488281 -6.234375 4.46875 -6.234375 C 3.957031 -6.234375 3.5625 -6.007812 3.28125 -5.5625 C 3.007812 -5.113281 2.875 -4.488281 2.875 -3.6875 C 2.875 -2.882812 3.007812 -2.265625 3.28125 -1.828125 C 3.5625 -1.398438 3.953125 -1.1875 4.453125 -1.1875 C 5.484375 -1.1875 6 -2.039062 6 -3.75 Z M 6 -3.75 "/></g></g></g><g fill="#ffffff" fill-opacity="1"><g transform="translate(100.539703, 18.732648)"><g><path d="M 0.953125 0 L 0.953125 -2.09375 L 2.9375 -2.09375 L 2.9375 0 Z M 0.953125 0 "/></g></g></g><g fill="#ffffff" fill-opacity="1"><g transform="translate(104.440414, 18.732648)"><g><path d="M 0.984375 -8.765625 L 0.984375 -10.171875 L 2.90625 -10.171875 L 2.90625 -8.765625 Z M 0.984375 0 L 0.984375 -7.421875 L 2.90625 -7.421875 L 2.90625 0 Z M 0.984375 0 "/></g></g></g><g fill="#ffffff" fill-opacity="1"><g transform="translate(108.341125, 18.732648)"><g><path d="M 8.03125 -3.71875 C 8.03125 -2.507812 7.695312 -1.5625 7.03125 -0.875 C 6.363281 -0.195312 5.441406 0.140625 4.265625 0.140625 C 3.109375 0.140625 2.195312 -0.203125 1.53125 -0.890625 C 0.875 -1.578125 0.546875 -2.519531 0.546875 -3.71875 C 0.546875 -4.90625 0.875 -5.84375 1.53125 -6.53125 C 2.195312 -7.21875 3.117188 -7.5625 4.296875 -7.5625 C 5.515625 -7.5625 6.441406 -7.226562 7.078125 -6.5625 C 7.710938 -5.90625 8.03125 -4.957031 8.03125 -3.71875 Z M 6.015625 -3.71875 C 6.015625 -4.601562 5.867188 -5.242188 5.578125 -5.640625 C 5.296875 -6.035156 4.878906 -6.234375 4.328125 -6.234375 C 3.160156 -6.234375 2.578125 -5.394531 2.578125 -3.71875 C 2.578125 -2.882812 2.71875 -2.253906 3 -1.828125 C 3.28125 -1.398438 3.691406 -1.1875 4.234375 -1.1875 C 5.421875 -1.1875 6.015625 -2.03125 6.015625 -3.71875 Z M 6.015625 -3.71875 "/></g></g></g><g clip-path="url(#id1)"><path fill="#ffffff" d="M 22.464844 20.957031 L 10.503906 20.957031 C 10.265625 20.957031 10.058594 21.113281 9.992188 21.339844 L 9.90625 21.632812 L 23.0625 21.632812 L 22.976562 21.339844 C 22.910156 21.113281 22.699219 20.957031 22.464844 20.957031 Z M 22.464844 20.957031 " fill-opacity="1" fill-rule="nonzero"/></g><path fill="#ffffff" d="M 16.082031 8.714844 L 16.886719 8.714844 L 16.886719 9.136719 L 16.082031 9.136719 Z M 16.082031 8.714844 " fill-opacity="1" fill-rule="nonzero"/><g clip-path="url(#id2)"><path fill="#ffffff" d="M 16.953125 8.464844 C 17.152344 8.246094 17.273438 7.910156 17.273438 7.546875 C 17.273438 6.910156 16.917969 6.390625 16.484375 6.390625 C 16.050781 6.390625 15.695312 6.910156 15.695312 7.546875 C 15.695312 7.90625 15.8125 8.246094 16.011719 8.464844 Z M 16.953125 8.464844 " fill-opacity="1" fill-rule="nonzero"/></g><path fill="#ffffff" d="M 16.082031 9.386719 L 16.886719 9.386719 L 16.886719 19.050781 L 16.082031 19.050781 Z M 16.082031 9.386719 " fill-opacity="1" fill-rule="nonzero"/><path fill="#ffffff" d="M 13.167969 20.035156 C 12.9375 20.035156 12.730469 20.1875 12.664062 20.410156 L 12.578125 20.707031 L 20.390625 20.707031 L 20.304688 20.410156 C 20.238281 20.1875 20.03125 20.035156 19.800781 20.035156 Z M 13.167969 20.035156 " fill-opacity="1" fill-rule="nonzero"/><path fill="#ffffff" d="M 15.957031 19.300781 L 14.554688 19.300781 L 14.554688 19.785156 L 18.414062 19.785156 L 18.414062 19.300781 Z M 15.957031 19.300781 " fill-opacity="1" fill-rule="nonzero"/><g clip-path="url(#id3)"><path fill="#ffffff" d="M 14.199219 15.730469 L 13.589844 15.730469 L 12.261719 10.535156 C 12.371094 10.554688 12.480469 10.566406 12.589844 10.566406 C 13.097656 10.566406 13.488281 10.417969 13.867188 10.269531 C 14.164062 10.152344 14.449219 10.042969 14.75 10.035156 C 15.195312 10.019531 15.601562 10.214844 15.832031 10.359375 L 15.832031 9.347656 C 15.648438 9.285156 15.089844 9.117188 14.589844 9.203125 C 14.332031 9.25 14.078125 9.382812 13.8125 9.527344 C 13.441406 9.726562 13.054688 9.933594 12.589844 9.933594 C 12.050781 9.933594 11.75 9.746094 11.605469 9.605469 C 11.554688 9.664062 11.496094 9.714844 11.425781 9.753906 C 11.367188 9.789062 11.289062 9.765625 11.253906 9.707031 C 11.222656 9.648438 11.242188 9.570312 11.300781 9.535156 C 11.445312 9.453125 11.535156 9.300781 11.535156 9.132812 C 11.535156 8.878906 11.328125 8.671875 11.070312 8.671875 C 10.816406 8.671875 10.609375 8.878906 10.609375 9.132812 C 10.609375 9.378906 10.75 9.636719 10.976562 9.867188 L 9.480469 15.730469 L 8.871094 15.730469 C 8.96875 16.640625 10.125 17.363281 11.535156 17.363281 C 12.941406 17.363281 14.101562 16.640625 14.199219 15.730469 Z M 13.332031 15.730469 L 11.660156 15.730469 L 11.660156 10.339844 C 11.765625 10.390625 11.875 10.433594 11.984375 10.46875 Z M 11.410156 10.207031 L 11.410156 15.730469 L 9.738281 15.730469 L 11.1875 10.054688 C 11.257812 10.105469 11.332031 10.160156 11.410156 10.207031 Z M 11.410156 10.207031 " fill-opacity="1" fill-rule="nonzero"/></g><g clip-path="url(#id4)"><path fill="#ffffff" d="M 23.488281 15.730469 L 21.992188 9.867188 C 22.214844 9.636719 22.359375 9.378906 22.359375 9.132812 C 22.359375 8.878906 22.152344 8.671875 21.894531 8.671875 C 21.640625 8.671875 21.433594 8.878906 21.433594 9.132812 C 21.433594 9.300781 21.523438 9.453125 21.664062 9.539062 C 21.726562 9.570312 21.746094 9.648438 21.710938 9.707031 C 21.679688 9.765625 21.601562 9.789062 21.542969 9.753906 C 21.472656 9.714844 21.414062 9.664062 21.363281 9.605469 C 21.21875 9.746094 20.917969 9.933594 20.378906 9.933594 C 19.910156 9.933594 19.527344 9.726562 19.15625 9.527344 C 18.886719 9.382812 18.636719 9.25 18.375 9.203125 C 17.878906 9.117188 17.320312 9.285156 17.136719 9.347656 L 17.136719 10.359375 C 17.367188 10.21875 17.769531 10.019531 18.214844 10.035156 C 18.519531 10.042969 18.800781 10.152344 19.101562 10.269531 C 19.480469 10.414062 19.871094 10.566406 20.378906 10.566406 C 20.488281 10.566406 20.597656 10.554688 20.707031 10.535156 L 19.378906 15.730469 L 18.769531 15.730469 C 18.867188 16.640625 20.023438 17.363281 21.433594 17.363281 C 22.84375 17.363281 24 16.640625 24.097656 15.730469 Z M 21.777344 10.054688 L 23.230469 15.730469 L 21.558594 15.730469 L 21.558594 10.207031 C 21.636719 10.160156 21.710938 10.105469 21.777344 10.054688 Z M 21.308594 10.339844 L 21.308594 15.730469 L 19.636719 15.730469 L 20.980469 10.46875 C 21.09375 10.433594 21.203125 10.390625 21.308594 10.339844 Z M 21.308594 10.339844 " fill-opacity="1" fill-rule="nonzero"/></g></svg>